<?xml version="1.0" encoding="utf-8"?>
<!DOCTYPE svg PUBLIC "-//W3C//DTD SVG 1.1//EN" "http://www.w3.org/Graphics/SVG/1.1/DTD/svg11.dtd">
<svg version="1.1" id="Layer_1" xmlns="http://www.w3.org/2000/svg" xmlns:xlink="http://www.w3.org/1999/xlink" x="0px" y="0px"
	 width="288.615px" height="433.027px" viewBox="0 0 288.615 433.027" enable-background="new 0 0 288.615 433.027"
	 xml:space="preserve">
<g>
	<rect x="31.126" y="385.478" fill="#444F70" stroke="#444F70" stroke-miterlimit="10" width="1.583" height="7.898"/>
	<path fill="#444F70" stroke="#444F70" stroke-miterlimit="10" d="M35.074,397.728c0,0,4.343,3.168,4.343,6.021s0,17.854,0,17.854
		s-0.705,1.625-2.103,2s-8.791,0-8.791,0l1.144-25.875H35.074z"/>
	<path fill="#444F70" stroke="#444F70" stroke-miterlimit="10" d="M34.833,407.021c0,0,1.999,0.834,2.333,2.834s0,19.5,0,19.5
		s-2.5,2.998-4.833,3.166c-2.333,0.166-6.501-1.168-7.167-2.5h-3.5v-18.666c0,0,0.334-4.334,3.334-4.334
		S34.833,407.021,34.833,407.021z"/>
	<path fill="#444F70" stroke="#444F70" stroke-miterlimit="10" d="M0,383.679"/>
	<path fill="#444F70" stroke="#444F70" stroke-miterlimit="10" d="M1.833,398.519"/>
	<path fill="#444F70" stroke="#444F70" stroke-miterlimit="10" d="M33.417,407.353c-0.489,0.83,0.969,2.883,1.604,3.396
		c0.165,2.824-0.104,5.664-0.104,8.477c0,1.418,0,2.836,0,4.252c0,1.527-0.51,3.051-0.375,4.5"/>
	<path fill="#444F70" stroke="#444F70" stroke-miterlimit="10" d="M31.917,407.353c0,3.758,0.054,7.408,0.223,11.113
		c0.136,3.012,0.569,5.846,0.652,8.762"/>
	<path fill="#444F70" stroke="#444F70" stroke-miterlimit="10" d="M29.667,407.103c0,6.873,0,13.793,0,20.75"/>
	<path fill="#444F70" stroke="#444F70" stroke-miterlimit="10" d="M27.042,406.978c0,3.197-0.242,6.236-0.25,9.375
		c-0.003,1.283,0.382,2.182,0.5,3.375c0.13,1.311,0.059,2.799-0.021,4.104c-0.569,0.416-0.354,1.635-0.354,2.396"/>
	<path fill="#444F70" stroke="#444F70" stroke-miterlimit="10" d="M25.042,407.228c0,2.277,0.079,4.512-0.375,6.625
		c-0.253,1.184-0.25,2.434-0.25,3.75c0,2.543,0,5.084,0,7.625"/>
	<path fill="#444F70" stroke="#444F70" stroke-miterlimit="10" d="M15.47,373.679c-13.667,1-7.333-19.334-7.333-19.334
		C20.471,357.177,20,369.438,20,369.438l4.804,4.276c4.982-14.949-7.125-22.537-7.125-22.537
		c-17.713-8.25-19.036,20.75-11.625,25.75c0,0,7.5,5.682,11.75,0.842L15.47,373.679z"/>
	<path fill="#444F70" stroke="#444F70" stroke-miterlimit="10" d="M22.735,383.96c3.985,0.275,6.564-0.281,6.564-0.281
		s-3.046,15.674-13.05,16.092c0,0-3.919,0.551-5.752-2.949C18.998,397.489,22.735,383.96,22.735,383.96z"/>
	<path fill="#444F70" stroke="#444F70" stroke-miterlimit="10" d="M25.495,384.071c0,0-0.382,5.879-3.381,7.293"/>
	<path fill="#444F70" stroke="#444F70" stroke-miterlimit="10" d="M15.834,376.38c0,0-6.167-0.154-7.167-2.59"/>
	<path fill="#444F70" stroke="#444F70" stroke-miterlimit="10" d="M22.334,368.802c0,0,1.832-6.781-2.334-9.781"/>
	<path fill="#444F70" stroke="#444F70" stroke-miterlimit="10" d="M29.3,383.679c0,0-11.654,3.498-13.779-5.252
		s6.975-9.625,6.975-9.625s5.025,0.824,4.775,4.912L29.3,383.679z"/>
	<path fill="#444F70" stroke="#444F70" stroke-miterlimit="10" d="M26.247,376.985c0,0,0.334-4.582-3.666-4.748"/>
	<path fill="#444F70" stroke="#444F70" stroke-miterlimit="10" d="M18.664,370.015c0.67,11.262,9.243,6.365,9.243,6.365
		s-1.74,9.377-7.907,3.342"/>
	<rect x="29.314" y="393.353" fill="#444F70" stroke="#444F70" stroke-miterlimit="10" width="5.76" height="4.375"/>
	<path fill="#444F70" stroke="#444F70" stroke-miterlimit="10" d="M10.498,396.821c7.748,0.887,12.682-12.545,12.083-12.354
		c-0.599,0.189-1.214-0.099-1.214-0.099s-2.005,8.409-6.264,7.866c-4.26-0.543-5.016-8.521-4.106-12.873l-2.673-1.061l-3.532-2.422
		c-3.328,17.793,5.742,20.902,5.742,20.902"/>
	<rect x="26.007" y="397.728" fill="#444F70" stroke="#444F70" stroke-miterlimit="10" width="5.91" height="2.75"/>
	<path fill="#444F70" stroke="#444F70" stroke-miterlimit="10" d="M32.354,400.478h-6.348c0,0-1.34,0.125-1.59,1.5s0,5,0,5
		l10.416,0.043v-3.918C34.833,403.103,33.917,400.478,32.354,400.478z"/>
	<rect x="27.731" y="379.714" fill="#444F70" stroke="#444F70" stroke-miterlimit="10" width="2.241" height="18.014"/>
	<path fill="#444F70" stroke="#444F70" stroke-miterlimit="10" d="M12.251,373.459"/>
	<path fill="#444F70" stroke="#444F70" stroke-miterlimit="10" d="M7.907,370.015"/>
	<path fill="#444F70" stroke="#444F70" stroke-miterlimit="10" d="M7.384,368.802c0,0,3.983-10.9,13.188,0.432l-2.433,1.15
		c-5.583-4.416-5.887,3.075-5.887,3.075S8.759,372.836,7.384,368.802z"/>
	<path fill="none" stroke="#444F70" stroke-miterlimit="10" d="M19.381,369.699c0,0-6.037-5.788-8.497-1.182"/>
</g>
<g>
	<rect x="255" y="385.478" fill="#444F70" stroke="#444F70" stroke-miterlimit="10" width="1.583" height="7.898"/>
	<path fill="#444F70" stroke="#444F70" stroke-miterlimit="10" d="M252.634,397.728c0,0-4.343,3.168-4.343,6.021s0,17.854,0,17.854
		s0.705,1.625,2.103,2s8.791,0,8.791,0l-1.144-25.875H252.634z"/>
	<path fill="#444F70" stroke="#444F70" stroke-miterlimit="10" d="M252.875,407.021c0,0-1.999,0.834-2.333,2.834s0,19.5,0,19.5
		s2.5,2.998,4.833,3.166c2.333,0.166,6.501-1.168,7.167-2.5h3.5v-18.666c0,0-0.334-4.334-3.334-4.334
		S252.875,407.021,252.875,407.021z"/>
	<path fill="#444F70" stroke="#444F70" stroke-miterlimit="10" d="M287.708,383.679"/>
	<path fill="#444F70" stroke="#444F70" stroke-miterlimit="10" d="M285.875,398.519"/>
	<path fill="#444F70" stroke="#444F70" stroke-miterlimit="10" d="M254.292,407.353c0.489,0.83-0.969,2.883-1.604,3.396
		c-0.165,2.824,0.104,5.664,0.104,8.477c0,1.418,0,2.836,0,4.252c0,1.527,0.51,3.051,0.375,4.5"/>
	<path fill="#444F70" stroke="#444F70" stroke-miterlimit="10" d="M255.792,407.353c0,3.758-0.054,7.408-0.223,11.113
		c-0.136,3.012-0.569,5.846-0.652,8.762"/>
	<path fill="#444F70" stroke="#444F70" stroke-miterlimit="10" d="M258.042,407.103c0,6.873,0,13.793,0,20.75"/>
	<path fill="#444F70" stroke="#444F70" stroke-miterlimit="10" d="M260.667,406.978c0,3.197,0.242,6.236,0.25,9.375
		c0.003,1.283-0.382,2.182-0.5,3.375c-0.13,1.311-0.059,2.799,0.021,4.104c0.569,0.416,0.354,1.635,0.354,2.396"/>
	<path fill="#444F70" stroke="#444F70" stroke-miterlimit="10" d="M262.667,407.228c0,2.277-0.079,4.512,0.375,6.625
		c0.253,1.184,0.25,2.434,0.25,3.75c0,2.543,0,5.084,0,7.625"/>
	<path fill="#444F70" stroke="#444F70" stroke-miterlimit="10" d="M272.239,373.679c13.667,1,7.333-19.334,7.333-19.334
		c-12.334,2.832-11.863,15.093-11.863,15.093l-4.804,4.276c-4.982-14.949,7.125-22.537,7.125-22.537
		c17.713-8.25,19.036,20.75,11.625,25.75c0,0-7.5,5.682-11.75,0.842L272.239,373.679z"/>
	<path fill="#444F70" stroke="#444F70" stroke-miterlimit="10" d="M264.973,383.96c-3.985,0.275-6.564-0.281-6.564-0.281
		s3.046,15.674,13.05,16.092c0,0,3.919,0.551,5.752-2.949C268.71,397.489,264.973,383.96,264.973,383.96z"/>
	<path fill="#444F70" stroke="#444F70" stroke-miterlimit="10" d="M262.213,384.071c0,0,0.382,5.879,3.381,7.293"/>
	<path fill="#444F70" stroke="#444F70" stroke-miterlimit="10" d="M271.875,376.38c0,0,6.167-0.154,7.167-2.59"/>
	<path fill="#444F70" stroke="#444F70" stroke-miterlimit="10" d="M265.375,368.802c0,0-1.832-6.781,2.334-9.781"/>
	<path fill="#444F70" stroke="#444F70" stroke-miterlimit="10" d="M258.409,383.679c0,0,11.654,3.498,13.779-5.252
		s-6.975-9.625-6.975-9.625s-5.025,0.824-4.775,4.912L258.409,383.679z"/>
	<path fill="#444F70" stroke="#444F70" stroke-miterlimit="10" d="M261.461,376.985c0,0-0.334-4.582,3.666-4.748"/>
	<path fill="#444F70" stroke="#444F70" stroke-miterlimit="10" d="M269.044,370.015c-0.67,11.262-9.243,6.365-9.243,6.365
		s1.74,9.377,7.907,3.342"/>
	<rect x="252.634" y="393.353" fill="#444F70" stroke="#444F70" stroke-miterlimit="10" width="5.76" height="4.375"/>
	<path fill="#444F70" stroke="#444F70" stroke-miterlimit="10" d="M277.21,396.821c-7.748,0.887-12.682-12.545-12.083-12.354
		c0.599,0.189,1.214-0.099,1.214-0.099s2.005,8.409,6.264,7.866c4.26-0.543,5.016-8.521,4.106-12.873l2.673-1.061l3.532-2.422
		c3.328,17.793-5.742,20.902-5.742,20.902"/>
	<rect x="255.792" y="397.728" fill="#444F70" stroke="#444F70" stroke-miterlimit="10" width="5.91" height="2.75"/>
	<path fill="#444F70" stroke="#444F70" stroke-miterlimit="10" d="M255.354,400.478h6.348c0,0,1.34,0.125,1.59,1.5s0,5,0,5
		l-10.416,0.043v-3.918C252.875,403.103,253.792,400.478,255.354,400.478z"/>
	<rect x="257.736" y="379.714" fill="#444F70" stroke="#444F70" stroke-miterlimit="10" width="2.241" height="18.014"/>
	<path fill="#444F70" stroke="#444F70" stroke-miterlimit="10" d="M275.458,373.459"/>
	<path fill="#444F70" stroke="#444F70" stroke-miterlimit="10" d="M279.801,370.015"/>
	<path fill="#444F70" stroke="#444F70" stroke-miterlimit="10" d="M280.325,368.802c0,0-3.983-10.9-13.188,0.432l2.433,1.15
		c5.583-4.416,5.888,3.075,5.888,3.075S278.95,372.836,280.325,368.802z"/>
	<path fill="none" stroke="#444F70" stroke-miterlimit="10" d="M268.328,369.699c0,0,6.037-5.788,8.497-1.182"/>
</g>
<path fill="#444F70" stroke="#444F70" stroke-miterlimit="10" d="M261.055,376.838c0,24.561-52.311,44.471-116.837,44.471
	c-64.527,0-121.598-20.396-116.837-44.471c7.008-35.439,52.31-32.373,116.837-32.373
	C208.745,344.465,261.055,344.398,261.055,376.838z"/>
<rect x="27.183" y="376.402" fill="#444F70" stroke="#444F70" stroke-miterlimit="10" width="233.402" height="7.783"/>
<rect x="27.296" y="378.142" fill="#444F70" stroke="#444F70" stroke-miterlimit="10" width="233.566" height="4.305"/>
<path fill="#444F70" stroke="#444F70" stroke-miterlimit="10" d="M156.749,354.407"/>
<path fill="#444F70" stroke="#444F70" stroke-miterlimit="10" d="M107.321,354.407"/>
<path fill="#444F70" stroke="#444F70" stroke-miterlimit="10" d="M91.487,260.472"/>
<path fill="#444F70" stroke="#444F70" stroke-miterlimit="10" d="M191.481,264.075"/>
<path fill="#444F70" stroke="#444F70" stroke-miterlimit="10" d="M193.459,260.472"/>
<path fill="#444F70" stroke="#444F70" stroke-miterlimit="10" d="M91.487,261.075"/>
<g>
	<polygon fill="#444F70" stroke="#444F70" stroke-miterlimit="10" points="153.264,115.313 216.223,300.79 230.557,317.011 
		230.557,295.546 156.678,114.074 	"/>
	<line fill="#444F70" stroke="#444F70" stroke-miterlimit="10" x1="154.897" y1="114.824" x2="230.557" y2="317.011"/>
</g>
<g>
	<polygon fill="#444F70" stroke="#444F70" stroke-miterlimit="10" points="158.508,112.873 232.971,273.294 248.305,287.294 
		246.305,266.294 160.92,111.542 	"/>
	<line fill="#444F70" stroke="#444F70" stroke-miterlimit="10" x1="248.305" y1="287.294" x2="159.77" y2="112.073"/>
</g>
<g>
	<polygon fill="#444F70" stroke="#444F70" stroke-miterlimit="10" points="162.69,110.366 248.305,243.294 264.805,254.626 
		259.137,236.294 164.784,108.722 	"/>
	<line fill="#444F70" stroke="#444F70" stroke-miterlimit="10" x1="163.79" y1="109.503" x2="264.805" y2="254.626"/>
</g>
<g>
	<polygon fill="#444F70" stroke="#444F70" stroke-miterlimit="10" points="166.303,107.292 256.805,209.293 274.471,217.96 
		266.805,199.314 168.401,104.938 	"/>
	<line fill="#444F70" stroke="#444F70" stroke-miterlimit="10" x1="167.403" y1="106.057" x2="274.471" y2="217.96"/>
</g>
<g>
	<polygon fill="#444F70" stroke="#444F70" stroke-miterlimit="10" points="169.727,103.129 257.971,172.294 276.637,176.127 
		266.305,161.449 171.45,100.198 	"/>
	<line fill="#444F70" stroke="#444F70" stroke-miterlimit="10" x1="170.624" y1="101.604" x2="276.637" y2="176.127"/>
</g>
<g>
	<polygon fill="#444F70" stroke="#444F70" stroke-miterlimit="10" points="172.475,97.991 256.971,139.794 274.471,141.627 
		260.971,129.46 173.604,94.737 	"/>
	<line fill="#444F70" stroke="#444F70" stroke-miterlimit="10" x1="173.038" y1="96.371" x2="274.471" y2="141.627"/>
</g>
<g>
	<polygon fill="#444F70" stroke="#444F70" stroke-miterlimit="10" points="174.168,92.432 246.137,110.794 265.971,109.627 
		251.805,101.613 174.69,89.133 	"/>
	<line fill="#444F70" stroke="#444F70" stroke-miterlimit="10" x1="174.415" y1="90.881" x2="265.971" y2="109.627"/>
</g>
<g>
	<polygon fill="#444F70" stroke="#444F70" stroke-miterlimit="10" points="174.403,86.456 243.137,89.133 253.137,85.102 
		243.971,79.627 174.415,82.287 	"/>
	<line fill="#444F70" stroke="#444F70" stroke-miterlimit="10" x1="174.383" y1="84.38" x2="253.137" y2="85.102"/>
</g>
<g>
	<polygon fill="#444F70" stroke="#444F70" stroke-miterlimit="10" points="174.061,80.471 233.471,74.46 244.137,68.127 
		229.137,64.96 173.442,77.426 	"/>
	<line fill="#444F70" stroke="#444F70" stroke-miterlimit="10" x1="173.704" y1="79.127" x2="244.137" y2="68.127"/>
</g>
<g>
	<polygon fill="#444F70" stroke="#444F70" stroke-miterlimit="10" points="172.708,75.293 222.875,60.294 232.04,52.127 
		216.54,51.46 171.272,71.754 	"/>
	<line fill="#444F70" stroke="#444F70" stroke-miterlimit="10" x1="172.032" y1="73.627" x2="231.545" y2="52.106"/>
</g>
<g>
	<polygon fill="#444F70" stroke="#444F70" stroke-miterlimit="10" points="166.67,65.46 201.504,38.794 206.055,27.627 
		194.555,31.294 164.157,62.862 	"/>
	<line fill="#444F70" stroke="#444F70" stroke-miterlimit="10" x1="165.602" y1="64.355" x2="206.055" y2="27.627"/>
</g>
<g>
	<polygon fill="#444F70" stroke="#444F70" stroke-miterlimit="10" points="140.665,54.12 137.138,8.96 142.471,0.46 148.137,8.96 
		144.665,54.12 	"/>
	<line fill="#444F70" stroke="#444F70" stroke-miterlimit="10" x1="142.471" y1="0.46" x2="142.672" y2="54.306"/>
</g>
<g>
	<polygon fill="#444F70" stroke="#444F70" stroke-miterlimit="10" points="170.034,69.911 213.208,48.162 218.055,38.495 
		207.055,40.162 168.237,67.149 	"/>
	<line fill="#444F70" stroke="#444F70" stroke-miterlimit="10" x1="169.17" y1="68.582" x2="218.055" y2="38.495"/>
</g>
<g>
	<polygon fill="#444F70" stroke="#444F70" stroke-miterlimit="10" points="147.807,54.552 154.305,10.397 160.471,3.897 
		163.741,11.563 151.567,55.454 	"/>
	<line fill="#444F70" stroke="#444F70" stroke-miterlimit="10" x1="149.479" y1="54.953" x2="160.471" y2="3.897"/>
</g>
<g>
	<polygon fill="#444F70" stroke="#444F70" stroke-miterlimit="10" points="154.2,56.398 170.27,14.877 177.77,9.377 177.77,19.544 
		157.456,57.84 	"/>
	<line fill="#444F70" stroke="#444F70" stroke-miterlimit="10" x1="155.774" y1="57.095" x2="177.77" y2="9.377"/>
</g>
<g>
	<polygon fill="#444F70" stroke="#444F70" stroke-miterlimit="10" points="162.635,61.404 191.055,27.627 191.055,17.627 
		182.555,21.96 159.553,59.228 	"/>
	<line fill="#444F70" stroke="#444F70" stroke-miterlimit="10" x1="161.055" y1="60.288" x2="191.055" y2="17.627"/>
</g>
<g>
	<polygon fill="#444F70" stroke="#444F70" stroke-miterlimit="10" points="132.365,115.417 69.406,300.894 55.072,317.114 
		55.072,295.649 128.95,114.177 	"/>
	<line fill="#444F70" stroke="#444F70" stroke-miterlimit="10" x1="130.732" y1="114.824" x2="55.072" y2="317.114"/>
</g>
<g>
	<polygon fill="#444F70" stroke="#444F70" stroke-miterlimit="10" points="127.121,112.976 52.658,273.397 37.324,287.397 
		39.324,266.397 124.709,111.646 	"/>
	<line fill="#444F70" stroke="#444F70" stroke-miterlimit="10" x1="37.324" y1="287.397" x2="125.859" y2="112.176"/>
</g>
<g>
	<polygon fill="#444F70" stroke="#444F70" stroke-miterlimit="10" points="122.938,110.469 37.324,243.397 20.824,254.729 
		26.492,236.397 120.846,108.825 	"/>
	<line fill="#444F70" stroke="#444F70" stroke-miterlimit="10" x1="121.843" y1="109.608" x2="20.824" y2="254.729"/>
</g>
<g>
	<polygon fill="#444F70" stroke="#444F70" stroke-miterlimit="10" points="119.326,107.396 28.824,209.396 11.158,218.063 
		18.824,199.417 117.229,105.041 	"/>
	<line fill="#444F70" stroke="#444F70" stroke-miterlimit="10" x1="118.226" y1="106.16" x2="11.158" y2="218.063"/>
</g>
<g>
	<polygon fill="#444F70" stroke="#444F70" stroke-miterlimit="10" points="115.901,103.232 27.658,172.397 8.992,176.23 
		19.324,161.552 114.179,100.301 	"/>
	<line fill="#444F70" stroke="#444F70" stroke-miterlimit="10" x1="115.005" y1="101.707" x2="8.992" y2="176.23"/>
</g>
<g>
	<polygon fill="#444F70" stroke="#444F70" stroke-miterlimit="10" points="113.154,98.094 28.658,139.897 11.158,141.73 
		24.658,129.563 112.025,94.84 	"/>
	<line fill="#444F70" stroke="#444F70" stroke-miterlimit="10" x1="112.592" y1="96.474" x2="11.158" y2="141.73"/>
</g>
<g>
	<polygon fill="#444F70" stroke="#444F70" stroke-miterlimit="10" points="111.46,92.535 39.492,110.897 19.658,109.73 
		33.824,101.716 110.939,89.236 	"/>
	<line fill="#444F70" stroke="#444F70" stroke-miterlimit="10" x1="111.215" y1="90.984" x2="19.658" y2="109.73"/>
</g>
<g>
	<polygon fill="#444F70" stroke="#444F70" stroke-miterlimit="10" points="111.226,86.559 42.492,89.236 32.492,85.205 
		41.658,79.73 111.215,82.39 	"/>
	<line fill="#444F70" stroke="#444F70" stroke-miterlimit="10" x1="111.246" y1="84.483" x2="32.492" y2="85.205"/>
</g>
<g>
	<polygon fill="#444F70" stroke="#444F70" stroke-miterlimit="10" points="111.567,80.574 52.158,74.563 41.492,68.23 
		56.492,65.063 112.187,77.529 	"/>
	<line fill="#444F70" stroke="#444F70" stroke-miterlimit="10" x1="111.926" y1="79.23" x2="41.492" y2="68.23"/>
</g>
<g>
	<polygon fill="#444F70" stroke="#444F70" stroke-miterlimit="10" points="112.922,75.396 62.754,60.397 53.59,52.23 69.09,51.563 
		114.356,71.857 	"/>
	<line fill="#444F70" stroke="#444F70" stroke-miterlimit="10" x1="113.598" y1="73.73" x2="54.084" y2="52.209"/>
</g>
<g>
	<polygon fill="#444F70" stroke="#444F70" stroke-miterlimit="10" points="118.958,65.563 84.125,38.897 79.574,27.73 
		91.074,31.397 121.473,62.965 	"/>
	<line fill="#444F70" stroke="#444F70" stroke-miterlimit="10" x1="120.027" y1="64.458" x2="79.574" y2="27.73"/>
</g>
<g>
	<polygon fill="#444F70" stroke="#444F70" stroke-miterlimit="10" points="115.595,70.014 72.422,48.265 67.574,38.598 
		78.574,40.265 117.392,67.252 	"/>
	<line fill="#444F70" stroke="#444F70" stroke-miterlimit="10" x1="116.459" y1="68.685" x2="67.574" y2="38.598"/>
</g>
<g>
	<polygon fill="#444F70" stroke="#444F70" stroke-miterlimit="10" points="137.822,54.552 131.324,10.397 125.157,3.897 
		121.889,11.563 134.063,55.454 	"/>
	<line fill="#444F70" stroke="#444F70" stroke-miterlimit="10" x1="136.15" y1="54.953" x2="125.157" y2="3.897"/>
</g>
<g>
	<polygon fill="#444F70" stroke="#444F70" stroke-miterlimit="10" points="131.43,56.501 115.358,14.98 107.858,9.48 
		107.858,19.647 128.173,57.943 	"/>
	<line fill="#444F70" stroke="#444F70" stroke-miterlimit="10" x1="129.855" y1="57.198" x2="107.858" y2="9.48"/>
</g>
<g>
	<polygon fill="#444F70" stroke="#444F70" stroke-miterlimit="10" points="122.994,61.507 94.574,27.73 94.574,17.73 
		103.074,22.063 126.075,59.331 	"/>
	<line fill="#444F70" stroke="#444F70" stroke-miterlimit="10" x1="124.574" y1="60.391" x2="94.574" y2="17.73"/>
</g>
<g>
	<path fill="#444F70" stroke="#444F70" stroke-miterlimit="10" d="M171.331,189.692c-5.242,0.202-4.652-5.377-4.652-5.377
		c-5.309-3.426-0.604-6.714-0.604-6.714c-1.18-4.033,2.949-4.83,2.949-4.83s-2.031,1.412,0.982,4.567
		c3.014,3.154-0.023,7.6-0.307,7.928C169.417,185.597,169.561,189.559,171.331,189.692"/>
	<path fill="#444F70" stroke="#444F70" stroke-miterlimit="10" d="M169.202,176.378c-0.393,0.364-5.146,5.161,0.498,8.889"/>
	<path fill="#444F70" stroke="#444F70" stroke-miterlimit="10" d="M170.545,178.007c0,0-3.199,2.899,0,5.644"/>
	<path fill="#444F70" stroke="#444F70" stroke-miterlimit="10" d="M156.612,194.091c1.342-9.947,7.539-13.76,7.539-13.76
		s-0.332,0.865,1.092,2.831c0,0-6.701,2.34-8.336,11.519L156.612,194.091z"/>
	<line fill="#444F70" stroke="#444F70" stroke-miterlimit="10" x1="166.075" y1="177.602" x2="167.741" y2="178.293"/>
	<line fill="#444F70" stroke="#444F70" stroke-miterlimit="10" x1="166.678" y1="184.315" x2="167.741" y2="183.435"/>
</g>
<path fill="#444F70" stroke="#444F70" stroke-miterlimit="10" d="M150.758,95.762c0,1.208-1.076,2.188-2.402,2.188h-11.932
	c-1.327,0-2.403-0.979-2.403-2.188l0,0c0-1.208,1.076-2.188,2.403-2.188h11.932C149.682,93.575,150.758,94.554,150.758,95.762
	L150.758,95.762z"/>
<circle fill="#444F70" stroke="#444F70" stroke-miterlimit="10" cx="142.499" cy="83.919" r="7.562"/>
<rect x="135.97" y="90.825" fill="#444F70" stroke="#444F70" stroke-miterlimit="10" width="12.865" height="2.75"/>
<path fill="#444F70" stroke="#444F70" stroke-miterlimit="10" d="M148.647,100.387"/>
<path fill="#444F70" stroke="#444F70" stroke-miterlimit="10" d="M135.226,100.325"/>
<g>
	<path fill="#444F70" stroke="#444F70" stroke-miterlimit="10" d="M131.206,165.575c-0.25-6.5-0.454-10.125,2.125-21.5
		s3.125-28.375,3.625-33.25S135.834,98.2,135.834,98.2h13.331c0,0-1.621,7.75-1.121,12.625s1.045,21.875,3.625,33.25
		c2.578,11.375,2.375,15,2.125,21.5H131.206z"/>
</g>
<rect x="126.322" y="205.742" fill="#444F70" stroke="#444F70" stroke-miterlimit="10" width="33.131" height="3.5"/>
<path fill="#444F70" stroke="#444F70" stroke-miterlimit="10" d="M165.053,201.742c0,2.209-1.863,4-4.162,4h-36.009
	c-2.298,0-4.161-1.791-4.161-4l0,0c0-2.209,1.863-4,4.161-4h36.009C163.19,197.742,165.053,199.533,165.053,201.742L165.053,201.742
	z"/>
<path fill="#444F70" stroke="#444F70" stroke-miterlimit="10" d="M191.481,251.837"/>
<path fill="#444F70" stroke="#444F70" stroke-miterlimit="10" d="M193.114,254.335"/>
<path fill="#444F70" stroke="#444F70" stroke-miterlimit="10" d="M93.466,251.837"/>
<g>
	<path fill="#444F70" stroke="#444F70" stroke-miterlimit="10" d="M97.533,262.681c0-0.902,3.25-1.5,3.25-4.625s-3-5.125-3-5.125
		c0.5-6.375-5.625-6.625-5.625-6.625s3.375,2.75,0,6.875s0.286,9.854,0.75,11.125c0.502,1.375,0.389,5-2.306,5.5
		C90.603,269.806,97.533,271.681,97.533,262.681z"/>
	<path fill="none" stroke="#444F70" stroke-miterlimit="10" d="M93.187,251.567c0,0,7.028,6.863,0,12.238"/>
	<path fill="none" stroke="#444F70" stroke-miterlimit="10" d="M91.554,254.067c0,0,3.704,4.988-0.346,6.738"/>
	<path fill="#444F70" stroke="#444F70" stroke-miterlimit="10" d="M108.283,268.806c-0.625-7.625-7.5-10.75-7.5-10.75
		s0.043,1.631-1.604,3.127c0,0,9.104,4.174,9.104,8.689"/>
</g>
<rect x="128.797" y="189.137" fill="#444F70" stroke="#444F70" stroke-miterlimit="10" width="28.016" height="2.563"/>
<path fill="#444F70" stroke="#444F70" stroke-miterlimit="10" d="M91.833,254.337"/>
<polygon fill="#444F70" stroke="#444F70" stroke-miterlimit="10" points="154.674,168.321 154.674,170.399 157.723,175.596 
	157.723,175.646 157.579,177.813 128.053,177.809 128.053,175.482 128.053,175.433 131.102,170.236 131.102,168.158 
	154.674,168.158 "/>
<path fill="#444F70" stroke="#444F70" stroke-miterlimit="10" d="M170.764,268.446c0,0-5.658,3.859-6.045,10.244
	c-0.385,6.385-0.316,14.775-0.316,14.775h-43.409c0,0,0.068-8.391-0.317-14.775s-6.044-10.244-6.044-10.244h56.334"/>
<path fill="#444F70" stroke="#444F70" stroke-miterlimit="10" d="M120.045,268.446c0,0,2.787,2.646,3.299,8.18
	s0.634,16.84,0.634,16.84"/>
<path fill="#444F70" stroke="#444F70" stroke-miterlimit="10" d="M123.978,268.446c0,0,2.585,1.004,2.335,6.879
	s0.017,18.375,0.017,18.375"/>
<path fill="#444F70" stroke="#444F70" stroke-miterlimit="10" d="M129.054,268.446c0,0,3.467,1.246,3.557,9.754s0,15.686,0,15.686"
	/>
<path fill="#444F70" stroke="#444F70" stroke-miterlimit="10" d="M136.188,268.446c0,0,1.975,0.879,2.737,6.379
	s0.506,18.996,0.506,18.996"/>
<path fill="#444F70" stroke="#444F70" stroke-miterlimit="10" d="M165.352,268.446c0,0-2.787,2.646-3.299,8.18
	s-0.635,16.84-0.635,16.84"/>
<path fill="#444F70" stroke="#444F70" stroke-miterlimit="10" d="M161.418,268.446c0,0-2.584,1.004-2.334,6.879
	s-0.018,18.375-0.018,18.375"/>
<path fill="#444F70" stroke="#444F70" stroke-miterlimit="10" d="M156.342,268.446c0,0-3.467,1.246-3.557,9.754s0,15.686,0,15.686"
	/>
<path fill="#444F70" stroke="#444F70" stroke-miterlimit="10" d="M149.209,268.446c0,0-1.975,0.879-2.738,6.379
	c-0.762,5.5-0.506,18.996-0.506,18.996"/>
<path fill="#444F70" stroke="#444F70" stroke-miterlimit="10" d="M98.389,293.7"/>
<line fill="#444F70" stroke="#444F70" stroke-miterlimit="10" x1="131.208" y1="293.741" x2="154.292" y2="293.821"/>
<path fill="#444F70" stroke="#444F70" stroke-miterlimit="10" d="M121.001,287.892"/>
<path fill="#444F70" stroke="#444F70" stroke-miterlimit="10" d="M133.919,293.7h-13.978l0.28-9.031c0,0,0.313-1.275,1.489-2.396
	c1.175-1.121,5.242-6.059,5.242-6.059s4.067,4.938,5.243,6.059s1.488,2.396,1.488,2.396L133.919,293.7z"/>
<path fill="#444F70" stroke="#444F70" stroke-miterlimit="10" d="M132.61,293.886l-0.648-6.582c0,0-0.234-0.844-1.113-1.586
	c-0.878-0.74-3.918-4.006-3.918-4.006s-3.041,3.266-3.919,4.006c-0.878,0.742-2.059,1.619-2.059,1.619l0.736,6.732"/>
<path fill="#444F70" stroke="#444F70" stroke-miterlimit="10" d="M131.962,290.962c0,0-0.238-0.844-1.134-1.586
	c-0.895-0.74-3.991-4.006-3.991-4.006s-3.099,3.266-3.993,4.006c-0.895,0.742-1.134,1.586-1.134,1.586"/>
<line fill="#444F70" stroke="#444F70" stroke-miterlimit="10" x1="122.832" y1="281.071" x2="123.855" y2="282.159"/>
<line fill="#444F70" stroke="#444F70" stroke-miterlimit="10" x1="131.016" y1="281.071" x2="129.992" y2="282.159"/>
<path fill="#444F70" stroke="#444F70" stroke-miterlimit="10" d="M165.022,293.515h-13.18l0.264-9.029c0,0,0.295-1.277,1.404-2.398
	c1.107-1.121,4.943-6.059,4.943-6.059s3.836,4.938,4.943,6.059c1.109,1.121,1.404,2.398,1.404,2.398L165.022,293.515z"/>
<path fill="#444F70" stroke="#444F70" stroke-miterlimit="10" d="M163.375,293.886l0.701-6.828c0,0-1.121-0.783-1.949-1.523
	c-0.828-0.742-3.695-4.008-3.695-4.008s-2.867,3.266-3.695,4.008c-0.828,0.74-1.049,1.584-1.049,1.584l-0.197,6.768"/>
<path fill="#444F70" stroke="#444F70" stroke-miterlimit="10" d="M163.178,290.776c0,0-0.227-0.844-1.07-1.584
	c-0.844-0.742-3.764-4.008-3.764-4.008s-2.922,3.266-3.766,4.008c-0.844,0.74-1.068,1.584-1.068,1.584"/>
<line fill="#444F70" stroke="#444F70" stroke-miterlimit="10" x1="154.567" y1="280.886" x2="155.532" y2="281.974"/>
<line fill="#444F70" stroke="#444F70" stroke-miterlimit="10" x1="162.286" y1="280.886" x2="161.319" y2="281.974"/>
<path fill="#444F70" stroke="#444F70" stroke-miterlimit="10" d="M121.575,293.794H98.526c0,0-0.234-4.027,6.686-10.719
	c4.396-4.25,3.3-13.953,2.8-14.539c0,0,6.4,5.98,10.453,13.166C120.681,285.632,122.194,289.923,121.575,293.794z"/>
<path fill="#444F70" stroke="#444F70" stroke-miterlimit="10" d="M104.718,283.563c0,0,5.014,3.23,3.373,10.23"/>
<path fill="#444F70" stroke="#444F70" stroke-miterlimit="10" d="M107.668,278.784c0,0,7.515,5.01,6.336,15.01"/>
<path fill="#444F70" stroke="#444F70" stroke-miterlimit="10" d="M115.2,276.72c0,0-0.435,2.846-1.196,3.148"/>
<path fill="#444F70" stroke="#444F70" stroke-miterlimit="10" d="M118.155,281.165c0,0,0.533,6.162-2.04,6.172"/>
<path fill="#444F70" stroke="#444F70" stroke-miterlimit="10" d="M120.953,287.337c0,0-0.962,3-2.295,3"/>
<path fill="#444F70" stroke="#444F70" stroke-miterlimit="10" d="M163.454,293.515h23.049c0,0,0.234-4.027-6.686-10.719
	c-4.395-4.25-3.299-13.953-2.799-14.539c0,0-6.4,5.98-10.453,13.166C164.348,285.353,162.834,289.644,163.454,293.515z"/>
<path fill="#444F70" stroke="#444F70" stroke-miterlimit="10" d="M180.311,283.284c0,0-5.014,3.23-3.373,10.23"/>
<path fill="#444F70" stroke="#444F70" stroke-miterlimit="10" d="M177.362,278.505c0,0-7.516,5.01-6.336,15.01"/>
<path fill="#444F70" stroke="#444F70" stroke-miterlimit="10" d="M169.829,276.44c0,0,0.436,2.846,1.197,3.148"/>
<path fill="#444F70" stroke="#444F70" stroke-miterlimit="10" d="M166.874,280.886c0,0-0.533,6.162,2.041,6.172"/>
<path fill="#444F70" stroke="#444F70" stroke-miterlimit="10" d="M164.077,287.058c0,0,0.961,3,2.295,3"/>
<path fill="#444F70" stroke="#444F70" stroke-miterlimit="10" d="M185.071,324.7c0,0-3.619,1.541-4.227,4.707h-76.088
	c-0.607-3.166-4.227-4.707-4.227-4.707H185.071z"/>
<path fill="#444F70" stroke="#444F70" stroke-miterlimit="10" d="M106.623,324.7c0,0,2.255,1.541,2.131,4.707"/>
<path fill="#444F70" stroke="#444F70" stroke-miterlimit="10" d="M112.868,324.7c0,0,2.51,1.541,2.386,4.707"/>
<path fill="#444F70" stroke="#444F70" stroke-miterlimit="10" d="M120.868,324.7c0,0,1.139,2.041,1.2,4.707"/>
<line fill="#444F70" stroke="#444F70" stroke-miterlimit="10" x1="129.864" y1="324.7" x2="129.864" y2="329.407"/>
<line fill="#444F70" stroke="#444F70" stroke-miterlimit="10" x1="139.414" y1="324.7" x2="139.414" y2="329.407"/>
<path fill="#444F70" stroke="#444F70" stroke-miterlimit="10" d="M178.977,324.7c0,0-2.254,1.541-2.131,4.707"/>
<path fill="#444F70" stroke="#444F70" stroke-miterlimit="10" d="M172.733,324.7c0,0-2.51,1.541-2.387,4.707"/>
<path fill="#444F70" stroke="#444F70" stroke-miterlimit="10" d="M164.733,324.7c0,0-1.139,2.041-1.201,4.707"/>
<line fill="#444F70" stroke="#444F70" stroke-miterlimit="10" x1="155.737" y1="324.7" x2="155.737" y2="329.407"/>
<line fill="#444F70" stroke="#444F70" stroke-miterlimit="10" x1="146.186" y1="324.7" x2="146.186" y2="329.407"/>
<path fill="#444F70" stroke="#444F70" stroke-miterlimit="10" d="M159.042,209.242h-32.333c0,0,1.5,4.428,0,9.13
	c-1.5,4.703-6.832,18.535-8.166,21.535s-0.369,7.012,0.631,7.178h47.403h0.025c1-0.166,1.965-4.178,0.631-7.178
	s-6.666-16.832-8.166-21.535c-1.5-4.703,0-9.13,0-9.13"/>
<path fill="none" stroke="#444F70" stroke-miterlimit="10" d="M156.254,247.085c0,0-3-8.832,7.834-19.338l-0.408,3.293"/>
<path fill="none" stroke="#444F70" stroke-miterlimit="10" d="M129.604,247.085c0,0,2.856-8.832-7.977-19.338l0.408,3.293"/>
<path fill="#444F70" stroke="#444F70" stroke-miterlimit="10" d="M120.268,235.485c0,0,7.228,3.277,4.228,11.6"/>
<path fill="#444F70" stroke="#444F70" stroke-miterlimit="10" d="M165.387,235.485c0,0-7.229,3.277-4.229,11.6"/>
<path fill="none" stroke="#444F70" stroke-miterlimit="10" d="M135.515,239.608c0,0-1.705-2.373-3.58-4.061
	c-1.875,1.688-2.998,3.469-2.998,3.469"/>
<path fill="none" stroke="#444F70" stroke-miterlimit="10" d="M138.057,236.733c0,0-2.05-3.646-5.691-6.402
	c-3.641,2.757-4.822,5.055-4.822,5.055"/>
<path fill="none" stroke="#444F70" stroke-miterlimit="10" d="M147.348,236.733c0,0,2.179-3.646,5.819-6.402
	c3.642,2.757,4.8,5.502,4.8,5.502"/>
<path fill="none" stroke="#444F70" stroke-miterlimit="10" d="M149.719,239.446c0,0,1.705-2.373,3.58-4.061
	c1.875,1.688,3.316,3.824,3.316,3.824"/>
<g>
	<path fill="#444F70" stroke="#444F70" stroke-miterlimit="10" d="M114.299,189.844c5.242,0.201,4.651-5.379,4.651-5.379
		c5.309-3.425,0.604-6.713,0.604-6.713c1.18-4.033-2.948-4.83-2.948-4.83s2.03,1.412-0.982,4.567
		c-3.014,3.154,0.022,7.601,0.306,7.929C116.213,185.746,116.068,189.709,114.299,189.844"/>
	<path fill="#444F70" stroke="#444F70" stroke-miterlimit="10" d="M116.428,176.528c0.393,0.364,5.146,5.161-0.499,8.89"/>
	<path fill="#444F70" stroke="#444F70" stroke-miterlimit="10" d="M115.083,178.157c0,0,3.2,2.899,0,5.644"/>
	<path fill="#444F70" stroke="#444F70" stroke-miterlimit="10" d="M129.017,194.24c-1.341-9.946-7.539-13.759-7.539-13.759
		s0.333,0.865-1.091,2.831c0,0,6.701,2.34,8.336,11.518L129.017,194.24z"/>
	<line fill="#444F70" stroke="#444F70" stroke-miterlimit="10" x1="119.554" y1="177.752" x2="117.889" y2="178.443"/>
	<line fill="#444F70" stroke="#444F70" stroke-miterlimit="10" x1="118.951" y1="184.465" x2="117.889" y2="183.585"/>
</g>
<polygon fill="#444F70" stroke="#444F70" stroke-miterlimit="10" points="158.079,183.262 159.391,189.137 126,189.137 
	127.313,183.262 "/>
<g>
	<circle fill="#444F70" stroke="#444F70" stroke-miterlimit="10" cx="142.888" cy="218.521" r="8.335"/>
	<circle fill="#444F70" stroke="#444F70" stroke-miterlimit="10" cx="142.888" cy="218.521" r="4.343"/>
	<circle fill="#444F70" stroke="#444F70" stroke-miterlimit="10" cx="142.888" cy="218.521" r="3.171"/>
	<line fill="#444F70" stroke="#444F70" stroke-miterlimit="10" x1="136.795" y1="212.985" x2="138.544" y2="214.718"/>
	<line fill="#444F70" stroke="#444F70" stroke-miterlimit="10" x1="137.182" y1="224.812" x2="138.932" y2="223.079"/>
	<line fill="#444F70" stroke="#444F70" stroke-miterlimit="10" x1="148.702" y1="224.597" x2="146.954" y2="222.864"/>
	<line fill="#444F70" stroke="#444F70" stroke-miterlimit="10" x1="149.114" y1="212.985" x2="147.366" y2="214.718"/>
</g>
<line fill="#444F70" stroke="#444F70" stroke-miterlimit="10" x1="134.517" y1="218.452" x2="138.515" y2="218.45"/>
<line fill="#444F70" stroke="#444F70" stroke-miterlimit="10" x1="142.887" y1="214.164" x2="142.886" y2="210.295"/>
<line fill="#444F70" stroke="#444F70" stroke-miterlimit="10" x1="143.055" y1="226.747" x2="143.054" y2="222.878"/>
<line fill="#444F70" stroke="#444F70" stroke-miterlimit="10" x1="147.231" y1="218.452" x2="151.108" y2="218.452"/>
<path fill="#444F70" stroke="#444F70" stroke-miterlimit="10" d="M105.282,223.333"/>
<path fill="#444F70" stroke="#444F70" stroke-miterlimit="10" d="M105.282,212.023"/>
<path fill="#444F70" stroke="#444F70" stroke-miterlimit="10" d="M103.07,220.56"/>
<path fill="#444F70" stroke="#444F70" stroke-miterlimit="10" d="M103.458,214.332"/>
<path fill="#444F70" stroke="#444F70" stroke-miterlimit="10" d="M175.54,220.726"/>
<rect x="131.313" y="191.7" fill="#444F70" stroke="#444F70" stroke-miterlimit="10" width="23" height="3.374"/>
<rect x="128.812" y="177.813" fill="#444F70" stroke="#444F70" stroke-miterlimit="10" width="27.376" height="2.762"/>
<rect x="131.313" y="180.575" fill="#444F70" stroke="#444F70" stroke-miterlimit="10" width="22.29" height="2.441"/>
<rect x="134.938" y="165.575" fill="#444F70" stroke="#444F70" stroke-miterlimit="10" width="15.125" height="2.583"/>
<path fill="#444F70" stroke="#444F70" stroke-miterlimit="10" d="M154.292,293.515l-23.083-0.08c0,0-1.365-4.984,4.813-10.813
	c4.836-4.563,6.684-8.813,6.729-9.813l0.001,0.08c0.045,1,1.893,5.25,6.729,9.813C155.657,288.53,154.292,293.515,154.292,293.515z"
	/>
<path fill="#444F70" stroke="#444F70" stroke-miterlimit="10" d="M149.563,293.394v-1.75c0,0,0-1.313-1.172-2.313
	s-5.86-5.75-5.86-5.75s-4.688,4.75-5.859,5.75s-1.172,2.313-1.172,2.313v1.75"/>
<path fill="#444F70" stroke="#444F70" stroke-miterlimit="10" d="M144.545,293.466v-1.447c0,0,0-0.625-0.75-1.375
	s-1.33-1.625-1.33-1.625h-0.072c0,0-0.58,0.875-1.33,1.625s-0.75,1.375-0.75,1.375v1.447"/>
<path fill="#444F70" stroke="#444F70" stroke-miterlimit="10" d="M137.175,281.165c0,0,1.548,1.762,0.655,3.086"/>
<path fill="#444F70" stroke="#444F70" stroke-miterlimit="10" d="M148.209,281.165c0,0-1.547,1.762-0.654,3.086"/>
<path fill="#444F70" stroke="#444F70" stroke-miterlimit="10" d="M108.563,335.075"/>
<line fill="#444F70" stroke="#444F70" stroke-miterlimit="10" x1="115.978" y1="335.399" x2="100.204" y2="335.399"/>
<path fill="#444F70" stroke="#444F70" stroke-miterlimit="10" d="M120.8,334.36h17.126c4.132,13.5-13.667,18.832-13.667,18.832
	C125.759,349.362,120.8,334.36,120.8,334.36z"/>
<path fill="#444F70" stroke="#444F70" stroke-miterlimit="10" d="M125.609,334.39h9.137c2.205,9.799-7.291,13.668-7.291,13.668
	C128.255,345.278,125.609,334.39,125.609,334.39z"/>
<path fill="#444F70" stroke="#444F70" stroke-miterlimit="10" d="M100.051,334.271c0,0,3.068,15.758,1.234,17.801
	c0,0,15.245-4.977,14.539-17.801"/>
<path fill="#444F70" stroke="#444F70" stroke-miterlimit="10" d="M103.551,334.509c0,0,1.566,11.59,0.63,13.092
	c0,0,7.783-3.66,7.423-13.092"/>
<path fill="#444F70" stroke="#444F70" stroke-miterlimit="10" d="M91.926,345.896c-17.334,5.42-28-1.355-28-1.355
	c3.833-0.301,8.667-0.15,11.167-4.064s9.833-6.023,9.833-6.023h10.083L91.926,345.896z"/>
<path fill="#444F70" stroke="#444F70" stroke-miterlimit="10" d="M108.409,334.271c0,0,0.875,5.586,3.625,9.182s1.5,7.619,0,8.619
	c0,0,17.652-4.352,17.639-17.801H108.409z"/>
<path fill="#444F70" stroke="#444F70" stroke-miterlimit="10" d="M111.909,334.271c0,0,0.141,4.676,2.57,6.676
	s1.345,5.25,1.345,5.25s9.46-1.227,10.335-11.926"/>
<path fill="#444F70" stroke="#444F70" stroke-miterlimit="10" d="M114.118,334.271c0,0,0.333,3.18,2.5,4.594
	s1.334,3.707,1.292,3.998s5.167-3.436,4.75-8.592"/>
<path fill="#444F70" stroke="#444F70" stroke-miterlimit="10" d="M93.535,334.271c0,0-5.083,3.898-9.75,16.551
	c0,0,25.125-0.186,24.375-16.551H93.535z"/>
<path fill="#444F70" stroke="#444F70" stroke-miterlimit="10" d="M92.746,334.271c0,0-0.446,7.504-2.582,9.506
	c-2.136,2.004,12.354-0.684,13.387-9.506"/>
<path fill="#444F70" stroke="#444F70" stroke-miterlimit="10" d="M93.535,334.271c0,0,1.082,6.035,0.749,6.771
	c-0.333,0.738,5.334-0.615,8.167-6.771"/>
<path fill="#444F70" stroke="#444F70" stroke-miterlimit="10" d="M73.559,342.813c14.556,1.689,19.188-8.543,19.188-8.543
	s-10.188,9.279-16.021,4.861L73.559,342.813z"/>
<line fill="#444F70" stroke="#444F70" stroke-miterlimit="10" x1="81.107" y1="348.058" x2="81.443" y2="346.31"/>
<line fill="#444F70" stroke="#444F70" stroke-miterlimit="10" x1="86.987" y1="343.458" x2="88.604" y2="343.89"/>
<line fill="#444F70" stroke="#444F70" stroke-miterlimit="10" x1="98.389" y1="348.171" x2="98.087" y2="346.196"/>
<line fill="#444F70" stroke="#444F70" stroke-miterlimit="10" x1="124.382" y1="348.896" x2="126.329" y2="348.171"/>
<line fill="#444F70" stroke="#444F70" stroke-miterlimit="10" x1="133.305" y1="348.163" x2="131.996" y2="347.265"/>
<line fill="#444F70" stroke="#444F70" stroke-miterlimit="10" x1="112.418" y1="344.519" x2="114.49" y2="343.171"/>
<line fill="#444F70" stroke="#444F70" stroke-miterlimit="10" x1="125.153" y1="344.804" x2="123.978" y2="343.675"/>
<line fill="#444F70" stroke="#444F70" stroke-miterlimit="10" x1="107.027" y1="349.229" x2="107.027" y2="347.265"/>
<path fill="#444F70" stroke="#444F70" stroke-miterlimit="10" d="M164.167,334.521h-17.125c-4.132,13.5,13.666,18.83,13.666,18.83
	C159.208,349.522,164.167,334.521,164.167,334.521z"/>
<path fill="#444F70" stroke="#444F70" stroke-miterlimit="10" d="M159.358,334.548h-9.137c-2.205,9.801,7.291,13.67,7.291,13.67
	C156.711,345.437,159.358,334.548,159.358,334.548z"/>
<path fill="#444F70" stroke="#444F70" stroke-miterlimit="10" d="M184.917,334.429c0,0-3.068,15.76-1.234,17.801
	c0,0-15.246-4.977-14.539-17.801"/>
<path fill="#444F70" stroke="#444F70" stroke-miterlimit="10" d="M181.417,334.667c0,0-1.566,11.59-0.631,13.094
	c0,0-7.783-3.662-7.422-13.094"/>
<path fill="#444F70" stroke="#444F70" stroke-miterlimit="10" d="M193.042,346.054c17.334,5.42,28-1.354,28-1.354
	c-3.834-0.301-8.668-0.152-11.168-4.066s-9.832-6.021-9.832-6.021h-10.084L193.042,346.054z"/>
<path fill="#444F70" stroke="#444F70" stroke-miterlimit="10" d="M176.557,334.429c0,0-0.875,5.588-3.625,9.184s-1.5,7.617,0,8.617
	c0,0-17.652-4.352-17.639-17.801H176.557z"/>
<path fill="#444F70" stroke="#444F70" stroke-miterlimit="10" d="M173.057,334.429c0,0-0.141,4.676-2.57,6.676
	s-1.344,5.25-1.344,5.25s-9.461-1.227-10.336-11.926"/>
<path fill="#444F70" stroke="#444F70" stroke-miterlimit="10" d="M170.848,334.429c0,0-0.332,3.182-2.5,4.596
	c-2.166,1.414-1.334,3.707-1.291,3.998c0.041,0.291-5.168-3.436-4.75-8.594"/>
<path fill="#444F70" stroke="#444F70" stroke-miterlimit="10" d="M191.432,334.429c0,0,5.082,3.9,9.75,16.551
	c0,0-25.125-0.186-24.375-16.551H191.432z"/>
<path fill="#444F70" stroke="#444F70" stroke-miterlimit="10" d="M192.221,334.429c0,0,0.445,7.504,2.582,9.508
	c2.135,2.002-12.355-0.684-13.387-9.508"/>
<path fill="#444F70" stroke="#444F70" stroke-miterlimit="10" d="M191.432,334.429c0,0-1.082,6.035-0.75,6.773
	c0.334,0.736-5.334-0.615-8.166-6.773"/>
<path fill="#444F70" stroke="#444F70" stroke-miterlimit="10" d="M211.409,342.972c-14.557,1.691-19.188-8.543-19.188-8.543
	s10.188,9.281,16.021,4.863L211.409,342.972z"/>
<line fill="#444F70" stroke="#444F70" stroke-miterlimit="10" x1="203.86" y1="348.218" x2="203.524" y2="346.468"/>
<line fill="#444F70" stroke="#444F70" stroke-miterlimit="10" x1="197.979" y1="343.618" x2="196.362" y2="344.048"/>
<line fill="#444F70" stroke="#444F70" stroke-miterlimit="10" x1="186.579" y1="348.331" x2="186.879" y2="346.354"/>
<line fill="#444F70" stroke="#444F70" stroke-miterlimit="10" x1="160.584" y1="349.054" x2="158.637" y2="348.331"/>
<line fill="#444F70" stroke="#444F70" stroke-miterlimit="10" x1="151.663" y1="348.323" x2="152.971" y2="347.425"/>
<line fill="#444F70" stroke="#444F70" stroke-miterlimit="10" x1="172.549" y1="344.677" x2="170.477" y2="343.329"/>
<line fill="#444F70" stroke="#444F70" stroke-miterlimit="10" x1="159.813" y1="344.964" x2="160.989" y2="343.833"/>
<line fill="#444F70" stroke="#444F70" stroke-miterlimit="10" x1="177.94" y1="349.39" x2="177.94" y2="347.425"/>
<path fill="#444F70" stroke="#444F70" stroke-miterlimit="10" d="M142.476,353.272c0,0-10.31-9.523-11.81-19.002h23.618
	C152.756,343.921,142.07,353.647,142.476,353.272"/>
<path fill="#444F70" stroke="#444F70" stroke-miterlimit="10" d="M142.392,343.454c0,0-5.591-4.604-6.404-9.184h12.808
	C147.967,338.935,142.172,343.636,142.392,343.454"/>
<path fill="#444F70" stroke="#444F70" stroke-miterlimit="10" d="M146.231,334.271c0,0-3.281,4.357-3.755,4.176
	c-0.475,0.182-3.755-4.176-3.755-4.176"/>
<line fill="#444F70" stroke="#444F70" stroke-miterlimit="10" x1="137.439" y1="347.714" x2="139.223" y2="344.804"/>
<line fill="#444F70" stroke="#444F70" stroke-miterlimit="10" x1="147.745" y1="347.601" x2="146.231" y2="344.804"/>
<polygon fill="#444F70" stroke="#444F70" stroke-miterlimit="10" points="198.262,334.452 130.303,334.452 86.594,334.452 
	86.594,329.407 198.262,329.407 "/>
<line fill="#444F70" stroke="#444F70" stroke-miterlimit="10" x1="135.97" y1="99.964" x2="149.03" y2="99.964"/>
<g>
	<path fill="#444F70" stroke="#444F70" stroke-miterlimit="10" d="M183.743,228.923c-6.666,0.25-5.916-6.674-5.916-6.674
		c-6.75-4.25-0.768-8.331-0.768-8.331c-1.5-5.004,3.75-5.993,3.75-5.993s-2.582,1.752,1.25,5.666
		c3.834,3.914-0.029,9.431-0.389,9.839C181.309,223.839,181.493,228.755,183.743,228.923"/>
	<path fill="none" stroke="#444F70" stroke-miterlimit="10" d="M181.034,212.4c-0.498,0.452-6.545,6.404,0.637,11.031"/>
	<path fill="none" stroke="#444F70" stroke-miterlimit="10" d="M182.745,214.423c0,0-4.07,3.595,0,7.001"/>
	<path fill="#444F70" stroke="#444F70" stroke-miterlimit="10" d="M165.022,234.378c1.707-12.342,9.592-17.074,9.592-17.074
		s-0.426,1.074,1.387,3.514c0,0-8.523,2.904-10.604,14.293L165.022,234.378z"/>
	<line fill="#444F70" stroke="#444F70" stroke-miterlimit="10" x1="177.059" y1="213.918" x2="179.178" y2="214.776"/>
	<line fill="#444F70" stroke="#444F70" stroke-miterlimit="10" x1="177.827" y1="222.249" x2="179.178" y2="221.157"/>
</g>
<g>
	<path fill="#444F70" stroke="#444F70" stroke-miterlimit="10" d="M101.884,228.923c6.667,0.25,5.917-6.674,5.917-6.674
		c6.75-4.25,0.767-8.33,0.767-8.33c1.5-5.004-3.75-5.993-3.75-5.993s2.583,1.752-1.25,5.666c-3.833,3.915,0.029,9.43,0.39,9.838
		S104.134,228.757,101.884,228.923"/>
	<path fill="none" stroke="#444F70" stroke-miterlimit="10" d="M104.593,212.4c0.498,0.453,6.545,6.406-0.636,11.031"/>
	<path fill="none" stroke="#444F70" stroke-miterlimit="10" d="M102.882,214.423c0,0,4.07,3.595,0,7.001"/>
	<path fill="#444F70" stroke="#444F70" stroke-miterlimit="10" d="M120.604,234.378c-1.707-12.342-9.591-17.072-9.591-17.072
		s0.425,1.072-1.387,3.512c0,0,8.522,2.906,10.604,14.293L120.604,234.378z"/>
	<line fill="#444F70" stroke="#444F70" stroke-miterlimit="10" x1="108.567" y1="213.919" x2="106.448" y2="214.777"/>
	<line fill="#444F70" stroke="#444F70" stroke-miterlimit="10" x1="107.801" y1="222.249" x2="106.448" y2="221.157"/>
</g>
<rect x="126.322" y="195.074" fill="#444F70" stroke="#444F70" stroke-miterlimit="10" width="33.131" height="2.668"/>
<rect x="94.438" y="293.515" fill="#444F70" stroke="#444F70" stroke-miterlimit="10" width="96.625" height="31.186"/>
<rect x="87.607" y="299.407" fill="#444F70" stroke="#444F70" stroke-miterlimit="10" width="110.329" height="21.465"/>
<rect x="90.841" y="301.782" fill="#444F70" stroke="#444F70" stroke-miterlimit="10" width="103.917" height="16.252"/>
<rect x="90.434" y="304.651" fill="#444F70" stroke="#444F70" stroke-miterlimit="10" width="103.026" height="11.418"/>
<path fill="#444F70" stroke="#444F70" stroke-miterlimit="10" d="M183.729,305.696"/>
<path fill="#444F70" stroke="#444F70" stroke-miterlimit="10" d="M183.729,315.376"/>
<path fill="#444F70" stroke="#444F70" stroke-miterlimit="10" d="M168.688,309.946"/>
<path fill="#444F70" stroke="#444F70" stroke-miterlimit="10" d="M165.438,306.97"/>
<rect x="91.031" y="304.651" fill="#444F70" stroke="#444F70" stroke-width="1.5" stroke-miterlimit="10" width="103.026" height="11.418"/>
<g>
	<path fill="none" stroke="#444F70" stroke-miterlimit="10" d="M174.53,312.46c0,0,3.574,0.102,6.236-2.223
		c-2.662-2.326-6.697-2.154-6.697-2.154"/>
	<g>
		<path fill="none" stroke="#444F70" stroke-miterlimit="10" d="M148.971,315.302c0,0,5.336,1.395,11.867-5.086
			c-6.531-6.48-11.867-5.084-11.867-5.084"/>
		<path fill="none" stroke="#444F70" stroke-miterlimit="10" d="M155.688,314.144c0,0,4.834,3.672,13.266-3.891
			c-8.432-7.563-13.266-3.85-13.266-3.85"/>
		<path fill="none" stroke="#444F70" stroke-miterlimit="10" d="M163.542,313.745c0,0,5.412,4.693,13.553-3.539
			c-8.434-7.563-13.553-3.721-13.553-3.721"/>
		<path fill="none" stroke="#444F70" stroke-miterlimit="10" d="M171.69,314.085c0,0,4.832,3.674,13.266-3.889
			c-8.434-7.563-13.266-3.85-13.266-3.85"/>
		<path fill="none" stroke="#444F70" stroke-miterlimit="10" d="M179.178,314.056c0,0,5.131,3.816,13.563-3.746
			c-8.432-7.563-13.266-3.85-13.266-3.85"/>
		<path fill="none" stroke="#444F70" stroke-miterlimit="10" d="M150.223,313.343c0,0,3.994-0.594,5.465-2.994
			c-1.471-2.398-5.465-2.992-5.465-2.992"/>
		<path fill="none" stroke="#444F70" stroke-miterlimit="10" d="M157.491,313.077c0,0,4.033,0.219,6.695-2.758
			c-2.662-2.975-6.695-2.758-6.695-2.758"/>
		<path fill="none" stroke="#444F70" stroke-miterlimit="10" d="M165.606,312.706c0,0,4.033,0.201,6.697-2.535
			c-2.664-2.738-6.697-2.537-6.697-2.537"/>
		<path fill="none" stroke="#444F70" stroke-miterlimit="10" d="M181.303,312.954c0,0,4.338,0.191,7-2.783
			c-2.662-2.977-7-2.732-7-2.732"/>
		<line fill="none" stroke="#444F70" stroke-miterlimit="10" x1="157.754" y1="307.438" x2="156.612" y2="308.243"/>
		<line fill="none" stroke="#444F70" stroke-miterlimit="10" x1="157.405" y1="312.796" x2="156.26" y2="311.991"/>
		<line fill="none" stroke="#444F70" stroke-miterlimit="10" x1="163.542" y1="306.485" x2="162.397" y2="307.29"/>
		<line fill="none" stroke="#444F70" stroke-miterlimit="10" x1="163.542" y1="313.745" x2="162.397" y2="312.94"/>
		<line fill="none" stroke="#444F70" stroke-miterlimit="10" x1="171.606" y1="306.634" x2="170.463" y2="307.438"/>
		<line fill="none" stroke="#444F70" stroke-miterlimit="10" x1="171.606" y1="314.056" x2="170.463" y2="313.251"/>
		<line fill="none" stroke="#444F70" stroke-miterlimit="10" x1="179.444" y1="306.558" x2="178.299" y2="307.362"/>
		<line fill="none" stroke="#444F70" stroke-miterlimit="10" x1="179.178" y1="314.056" x2="178.034" y2="313.251"/>
		<line fill="none" stroke="#444F70" stroke-miterlimit="10" x1="187.368" y1="306.688" x2="186.225" y2="307.493"/>
		<line fill="none" stroke="#444F70" stroke-miterlimit="10" x1="187.104" y1="314.187" x2="185.959" y2="313.382"/>
	</g>
</g>
<g>
	<path fill="none" stroke="#444F70" stroke-miterlimit="10" d="M110.614,312.335c0,0-3.977,0.172-6.602-2.152
		c2.625-2.326,6.602-2.154,6.602-2.154"/>
	<g>
		<path fill="none" stroke="#444F70" stroke-miterlimit="10" d="M135.887,315.313c0,0-5.472,1.45-11.91-5.03
			c6.438-6.48,11.698-5.084,11.698-5.084"/>
		<path fill="none" stroke="#444F70" stroke-miterlimit="10" d="M129.054,314.21c0,0-4.764,3.672-13.076-3.891
			c8.313-7.563,13.076-3.85,13.076-3.85"/>
		<path fill="none" stroke="#444F70" stroke-miterlimit="10" d="M121.029,314.161c0,0-4.764,3.674-13.076-3.889
			c8.313-7.563,13.359-3.721,13.359-3.721"/>
		<path fill="none" stroke="#444F70" stroke-miterlimit="10" d="M113.28,314.151c0,0-4.764,3.674-13.076-3.889
			c8.313-7.563,13.076-3.85,13.076-3.85"/>
		<path fill="none" stroke="#444F70" stroke-miterlimit="10" d="M105.899,314.122c0,0-5.058,3.816-13.37-3.746
			c8.313-7.563,13.076-3.85,13.076-3.85"/>
		<path fill="none" stroke="#444F70" stroke-miterlimit="10" d="M134.741,313.409c0,0-4.236-0.594-5.688-2.994
			c1.451-2.398,5.389-2.992,5.389-2.992"/>
		<path fill="none" stroke="#444F70" stroke-miterlimit="10" d="M127.278,313.144c0,0-3.977,0.219-6.602-2.758
			c2.625-2.975,6.602-2.758,6.602-2.758"/>
		<path fill="none" stroke="#444F70" stroke-miterlimit="10" d="M119.278,312.772c0,0-3.977,0.201-6.602-2.535
			c2.625-2.738,6.602-2.537,6.602-2.537"/>
		<path fill="none" stroke="#444F70" stroke-miterlimit="10" d="M103.805,313.021c0,0-4.276,0.191-6.901-2.783
			c2.625-2.977,6.901-2.732,6.901-2.732"/>
		<line fill="none" stroke="#444F70" stroke-miterlimit="10" x1="127.017" y1="307.505" x2="128.145" y2="308.31"/>
		<line fill="none" stroke="#444F70" stroke-miterlimit="10" x1="127.361" y1="312.862" x2="128.489" y2="312.058"/>
		<line fill="none" stroke="#444F70" stroke-miterlimit="10" x1="121.313" y1="306.552" x2="122.44" y2="307.356"/>
		<line fill="none" stroke="#444F70" stroke-miterlimit="10" x1="121.313" y1="313.812" x2="122.44" y2="313.007"/>
		<line fill="none" stroke="#444F70" stroke-miterlimit="10" x1="113.362" y1="306.7" x2="114.49" y2="307.505"/>
		<line fill="none" stroke="#444F70" stroke-miterlimit="10" x1="113.362" y1="314.122" x2="114.49" y2="313.317"/>
		<line fill="none" stroke="#444F70" stroke-miterlimit="10" x1="105.638" y1="306.624" x2="106.766" y2="307.429"/>
		<line fill="none" stroke="#444F70" stroke-miterlimit="10" x1="105.899" y1="314.122" x2="107.027" y2="313.317"/>
		<line fill="none" stroke="#444F70" stroke-miterlimit="10" x1="97.825" y1="306.755" x2="98.953" y2="307.56"/>
		<line fill="none" stroke="#444F70" stroke-miterlimit="10" x1="98.087" y1="314.253" x2="99.215" y2="313.448"/>
	</g>
</g>
<g>
	<circle fill="#444F70" stroke="#444F70" stroke-miterlimit="10" cx="142.392" cy="310.103" r="8.335"/>
	<circle fill="#444F70" stroke="#444F70" stroke-miterlimit="10" cx="142.392" cy="310.103" r="4.343"/>
	<circle fill="#444F70" stroke="#444F70" stroke-miterlimit="10" cx="142.393" cy="310.103" r="3.17"/>
	<line fill="#444F70" stroke="#444F70" stroke-miterlimit="10" x1="136.3" y1="304.567" x2="138.049" y2="306.3"/>
	<line fill="#444F70" stroke="#444F70" stroke-miterlimit="10" x1="136.687" y1="316.394" x2="138.437" y2="314.661"/>
	<line fill="#444F70" stroke="#444F70" stroke-miterlimit="10" x1="148.208" y1="316.179" x2="146.458" y2="314.446"/>
	<line fill="#444F70" stroke="#444F70" stroke-miterlimit="10" x1="148.62" y1="304.567" x2="146.87" y2="306.3"/>
</g>
<path fill="#444F70" stroke="#444F70" stroke-miterlimit="10" d="M87.607,320.407c0.301-0.166,6.301-4.082,6-10.916
	c-0.301-6.832-6-10.084-6-10.084s-6.5,3.5-6.5,10S86.774,320.241,87.607,320.407z"/>
<path fill="none" stroke="#444F70" stroke-miterlimit="10" d="M82.631,304.187c0,0,4.484,6.217-1.188,7.928"/>
<path fill="none" stroke="#444F70" stroke-miterlimit="10" d="M84.986,301.356c0,0,6.786,8.951-0.673,16.252"/>
<line fill="#444F70" stroke="#444F70" stroke-width="1.5" stroke-miterlimit="10" x1="92.529" y1="304.604" x2="89.949" y2="306.337"/>
<line fill="#444F70" stroke="#444F70" stroke-width="1.5" stroke-miterlimit="10" x1="91.815" y1="316.069" x2="89.949" y2="314.253"/>
<path fill="#444F70" stroke="#444F70" stroke-miterlimit="10" d="M198.018,320.407c-0.301-0.166-6.301-4.082-6-10.916
	c0.301-6.832,6-10.084,6-10.084s6.5,3.5,6.5,10S198.852,320.241,198.018,320.407z"/>
<path fill="none" stroke="#444F70" stroke-miterlimit="10" d="M202.995,304.187c0,0-4.484,6.217,1.188,7.928"/>
<path fill="none" stroke="#444F70" stroke-miterlimit="10" d="M200.639,301.356c0,0-6.785,8.951,0.674,16.252"/>
<line fill="#444F70" stroke="#444F70" stroke-width="1.5" stroke-miterlimit="10" x1="193.096" y1="304.604" x2="195.676" y2="306.337"/>
<line fill="#444F70" stroke="#444F70" stroke-width="1.5" stroke-miterlimit="10" x1="193.811" y1="316.069" x2="195.676" y2="314.253"/>
<path fill="#444F70" stroke="#444F70" stroke-miterlimit="10" d="M151.057,247.005c0,0,0.4-3.952-0.953-6.599
	s-7.499-7.278-7.537-10.075c-0.038,2.797-6.183,7.429-7.537,10.075s-0.954,6.599-0.954,6.599"/>
<g>
	<path fill="#444F70" stroke="#444F70" stroke-miterlimit="10" d="M138.057,246.927c0,0-0.434-2.81,0.766-4.726
		s3.457-3.087,3.745-5.21"/>
	<path fill="#444F70" stroke="#444F70" stroke-miterlimit="10" d="M147.079,246.927c0,0,0.434-2.81-0.766-4.726
		c-1.2-1.916-3.458-3.087-3.746-5.21"/>
</g>
<g>
	<path fill="#444F70" stroke="#444F70" stroke-miterlimit="10" d="M187.036,263.38c0-0.9-3.25-1.5-3.25-4.625s3-5.125,3-5.125
		c-0.5-6.375,5.625-6.625,5.625-6.625s-3.375,2.75,0,6.875s-0.285,9.855-0.75,11.125c-0.502,1.375-0.389,5,2.307,5.5
		C193.967,270.505,187.036,272.38,187.036,263.38z"/>
	<path fill="none" stroke="#444F70" stroke-miterlimit="10" d="M191.383,252.269c0,0-7.029,6.861,0,12.236"/>
	<path fill="none" stroke="#444F70" stroke-miterlimit="10" d="M193.016,254.767c0,0-3.705,4.988,0.346,6.738"/>
	<path fill="#444F70" stroke="#444F70" stroke-miterlimit="10" d="M176.286,269.505c0.625-7.625,7.5-10.75,7.5-10.75
		s-0.043,1.631,1.604,3.129c0,0-9.104,4.172-9.104,8.688"/>
</g>
<rect x="114.354" y="246.927" fill="#444F70" stroke="#444F70" stroke-miterlimit="10" width="56.85" height="21.52"/>
<rect x="113.598" y="250.075" fill="#444F70" stroke="#444F70" stroke-miterlimit="10" width="57.94" height="15.336"/>
<rect x="113.598" y="252.245" fill="#444F70" stroke="#444F70" stroke-width="1.5" stroke-miterlimit="10" width="57.94" height="10.705"/>
<g>
	<polyline fill="none" stroke="#444F70" stroke-miterlimit="10" points="132.846,263.069 127.548,257.599 132.846,252.327 	"/>
	<polyline fill="none" stroke="#444F70" stroke-miterlimit="10" points="127.885,262.97 122.587,257.497 127.885,252.228 	"/>
	<polyline fill="none" stroke="#444F70" stroke-miterlimit="10" points="122.929,263.153 117.631,257.683 122.929,252.411 	"/>
</g>
<g>
	<polyline fill="none" stroke="#444F70" stroke-miterlimit="10" points="152.606,262.978 157.903,257.507 152.606,252.235 	"/>
	<polyline fill="none" stroke="#444F70" stroke-miterlimit="10" points="157.567,262.878 162.864,257.407 157.567,252.136 	"/>
	<polyline fill="none" stroke="#444F70" stroke-miterlimit="10" points="162.522,263.062 167.821,257.591 162.522,252.319 	"/>
</g>
<path fill="#444F70" stroke="#444F70" stroke-miterlimit="10" d="M114.359,268.337c6.167-10.5,0-19,0-19s-6.918,3.844-7.084,8.713
	C107.109,262.921,109.859,265.505,114.359,268.337z"/>
<path fill="none" stroke="#444F70" stroke-miterlimit="10" d="M109.962,252.757c0,0,3.839,5.83-1.916,9.498"/>
<path fill="none" stroke="#444F70" stroke-miterlimit="10" d="M111.582,251.267c0,0,6.232,8.129-1.446,13.893"/>
<line fill="#444F70" stroke="#444F70" stroke-width="1.5" stroke-miterlimit="10" x1="116.385" y1="263.021" x2="114.486" y2="261.823"/>
<line fill="#444F70" stroke="#444F70" stroke-width="1.5" stroke-miterlimit="10" x1="116.126" y1="252.353" x2="114.501" y2="253.415"/>
<path fill="#444F70" stroke="#444F70" stroke-miterlimit="10" d="M171.413,268.337c-6.168-10.5,0-19,0-19s6.918,3.844,7.084,8.713
	C178.663,262.921,175.913,265.505,171.413,268.337z"/>
<path fill="#444F70" stroke="#444F70" stroke-miterlimit="10" d="M175.809,252.757c0,0-3.838,5.83,1.916,9.498"/>
<path fill="none" stroke="#444F70" stroke-miterlimit="10" d="M174.19,251.267c0,0-6.232,8.129,1.445,13.893"/>
<line fill="#444F70" stroke="#444F70" stroke-width="1.5" stroke-miterlimit="10" x1="169.116" y1="263.116" x2="171.014" y2="261.919"/>
<line fill="#444F70" stroke="#444F70" stroke-width="1.5" stroke-miterlimit="10" x1="169.778" y1="252.448" x2="171.403" y2="253.513"/>
<line fill="#444F70" stroke="#444F70" stroke-miterlimit="10" x1="142.862" y1="250.774" x2="142.862" y2="249.456"/>
<g>
	<g>
		<circle fill="#444F70" stroke="#444F70" stroke-miterlimit="10" cx="142.779" cy="257.687" r="8.335"/>
		<circle fill="#444F70" stroke="#444F70" stroke-miterlimit="10" cx="142.779" cy="257.687" r="4.343"/>
		<circle fill="#444F70" stroke="#444F70" stroke-miterlimit="10" cx="142.779" cy="257.687" r="3.171"/>
		<line fill="#444F70" stroke="#444F70" stroke-miterlimit="10" x1="136.686" y1="252.149" x2="138.435" y2="253.884"/>
		<line fill="#444F70" stroke="#444F70" stroke-miterlimit="10" x1="137.072" y1="263.978" x2="138.822" y2="262.245"/>
		<line fill="#444F70" stroke="#444F70" stroke-miterlimit="10" x1="148.592" y1="263.763" x2="146.844" y2="262.03"/>
		<line fill="#444F70" stroke="#444F70" stroke-miterlimit="10" x1="149.004" y1="252.149" x2="147.256" y2="253.884"/>
	</g>
	<line fill="#444F70" stroke="#444F70" stroke-miterlimit="10" x1="142.694" y1="250.774" x2="142.693" y2="249.456"/>
	<line fill="#444F70" stroke="#444F70" stroke-miterlimit="10" x1="142.862" y1="265.938" x2="142.861" y2="264.62"/>
	<line fill="#444F70" stroke="#444F70" stroke-miterlimit="10" x1="134.443" y1="257.687" x2="136.188" y2="257.687"/>
	<line fill="#444F70" stroke="#444F70" stroke-miterlimit="10" x1="149.209" y1="257.698" x2="150.954" y2="257.698"/>
</g>
<path fill="#444F70" stroke="#444F70" stroke-miterlimit="10" d="M138.057,236.733c0,0,1.59,1.53,1.278,2.28"/>
<path fill="#444F70" stroke="#444F70" stroke-miterlimit="10" d="M147.377,236.733c0,0-1.59,1.53-1.277,2.28"/>
<g>
	<path fill="#444F70" stroke="#444F70" stroke-miterlimit="10" d="M143.072,188.816c0-3.5,2.667-4.083,2.667-4.083
		c4.25-1.583,4.25-7.015,4.25-7.015c0-3.82-3.098-6.917-6.917-6.917c-3.82,0-6.917,3.097-6.917,6.917c0,0,0,5.432,4.25,7.015
		C140.405,184.733,143.072,185.316,143.072,188.816z"/>
	<circle fill="#444F70" stroke="#444F70" stroke-miterlimit="10" cx="143.053" cy="177.756" r="3.68"/>
	<line fill="#444F70" stroke="#444F70" stroke-miterlimit="10" x1="136.433" y1="177.078" x2="139.439" y2="177.083"/>
	<line fill="#444F70" stroke="#444F70" stroke-miterlimit="10" x1="143.052" y1="170.801" x2="143.054" y2="174.02"/>
	<line fill="#444F70" stroke="#444F70" stroke-miterlimit="10" x1="146.668" y1="177.082" x2="149.709" y2="177.087"/>
	<line fill="#444F70" stroke="#444F70" stroke-miterlimit="10" x1="138.55" y1="183.902" x2="141.183" y2="180.922"/>
	<line fill="#444F70" stroke="#444F70" stroke-miterlimit="10" x1="147.555" y1="183.635" x2="145.229" y2="180.719"/>
</g>
</svg>
